<svg xmlns="http://www.w3.org/2000/svg" xmlns:xlink="http://www.w3.org/1999/xlink" width="34" height="23" viewBox="0 0 34 23"><defs><path id="gvl6a" d="M668.01 44H667a1 1 0 0 0-.99 1 1 1 0 0 0 .99 1H668a1 1 0 0 0 .99-1 1 1 0 0 0-.99-1z"/><path id="gvl6b" d="M673.01 44H672a1 1 0 0 0-.99 1 1 1 0 0 0 .99 1H673a1 1 0 0 0 .99-1 1 1 0 0 0-.99-1z"/><path id="gvl6c" d="M679.01 44H678a1 1 0 0 0-.99 1 1 1 0 0 0 .99 1H679a1 1 0 0 0 .99-1 1 1 0 0 0-.99-1z"/><path id="gvl6d" d="M683.84 47.82A4.23 4.23 0 0 1 681 49a4.29 4.29 0 0 1-2.96-1.3 1.51 1.51 0 0 0-2.08 0A4.29 4.29 0 0 1 673 49a4.29 4.29 0 0 1-2.96-1.3 1.51 1.51 0 0 0-2.09 0A4.28 4.28 0 0 1 665 49a4.29 4.29 0 0 1-2.96-1.3 1.51 1.51 0 0 0-2.09 0c-.2.2-.42.38-.64.54l.77-7.53h27.31zm-19.77-10.95h13.26a1 1 0 0 0 .15-.02l1.28 1.86H663.9zm.29-2.93h11.1l.64.93h-11.83zm2-3.94h6.26c1.12 0 2.04.85 2.14 1.95h-8.4zM689 49a4.26 4.26 0 0 1-2.9-1.25l3.8-7.6a1 1 0 0 0-.9-1.44h-7.8l-4.39-6.34-.05-.06v-.16a4.15 4.15 0 0 0-4.14-4.15h-9.23a1 1 0 0 0 0 2h.97v1.95h-.9a1 1 0 0 0-1 .9l-.58 5.86h-1.81c-1.03 0-1.88.77-1.98 1.8l-.39 3.81h-.7a1 1 0 0 0 0 2h.5l-.18 1.78v.01c-.03.3 0 .6.1.87L657 49a1 1 0 0 0 0 2c1.43 0 2.8-.53 4-1.55a6.13 6.13 0 0 0 4 1.55c1.43 0 2.8-.53 4-1.55a6.13 6.13 0 0 0 4 1.55c1.43 0 2.8-.53 4-1.55a6.13 6.13 0 0 0 4 1.55c1.43 0 2.8-.53 4-1.55a6.13 6.13 0 0 0 4 1.55 1 1 0 0 0 0-2z"/></defs><g><g transform="translate(-656 -28)"><g><use fill="#f4c685" xlink:href="#gvl6a"/></g><g><use fill="#f4c685" xlink:href="#gvl6b"/></g><g><use fill="#f4c685" xlink:href="#gvl6c"/></g><g><use fill="#f4c685" xlink:href="#gvl6d"/></g></g></g></svg>