<svg xmlns="http://www.w3.org/2000/svg" xmlns:xlink="http://www.w3.org/1999/xlink" width="24" height="22" viewBox="0 0 24 22"><defs><path id="lmg3a" d="M314.5 32.4v8.8h15v-8.8zm15 11.73c0-.8-.67-1.46-1.5-1.46s-1.5.65-1.5 1.46c0 .81.67 1.47 1.5 1.47s1.5-.66 1.5-1.47zm-12 0c0-.8-.67-1.46-1.5-1.46s-1.5.65-1.5 1.46c0 .81.67 1.47 1.5 1.47s1.5-.66 1.5-1.47zm1.5-13.2h6v-1.46h-6zm12 1.47v13.2c0 .81-.67 1.47-1.5 1.47v1.46c0 .81-.67 1.47-1.5 1.47h-1.5c-.83 0-1.5-.66-1.5-1.47v-1.46h-6v1.46c0 .81-.67 1.47-1.5 1.47H316c-.83 0-1.5-.66-1.5-1.47v-1.46c-.83 0-1.5-.66-1.5-1.47V32.4c0-2.43 2.02-4.4 4.5-4.4h9c2.48 0 4.5 1.97 4.5 4.4zm3 2.2v2.93c0 .4-.34.74-.75.74h-.75v-4.4h.75c.41 0 .75.33.75.73zm-23.25-.73h.75v4.4h-.75a.74.74 0 0 1-.75-.74V34.6c0-.4.34-.73.75-.73z"/></defs><g><g transform="translate(-310 -28)"><use fill="#f4c685" xlink:href="#lmg3a"/></g></g></svg>