<svg xmlns="http://www.w3.org/2000/svg" width="24" height="21" viewBox="0 0 24 21"><g fill="#FFF" fill-rule="evenodd"><path fill-rule="nonzero" d="M24,2.00000213 L0,2.00000213 L0,21.0000021 C0.89734375,21.0000021 1.89734375,21.0000021 3,21.0000021 L21,21.0000021 C22.1026562,21.0000021 23.1026562,21.0000021 24,21.0000021 L24,5.0000046 C24,3.89734744 24,2.89734662 24,2.00000213 Z M21.9999844,19.0000298 L2.00001562,19.0000298 L2.00001562,4.00001918 L21.9999844,4.00001918 L21.9999844,19.0000298 Z"/><rect width="7" height="2" x="3"/><path fill-rule="nonzero" d="M6.00001172 6L3.99998828 6C3.44700175 6 3 6.44700698 3 7 3 7.55299302 3.44700175 8 3.99998828 8L6.00001172 8C6.55299825 8 7 7.55299302 7 7 7 6.44700698 6.55299825 6 6.00001172 6zM12 7C9.24300862 7 7 9.24300862 7 12 7 14.7569914 9.24300862 17 12 17 14.7569914 17 17 14.7569914 17 12 17 9.24300862 14.7569914 7 12 7zM12 14.9999906C10.3460208 14.9999906 9.00000937 13.6539792 9.00000937 12 9.00000937 10.3460208 10.3460208 9.00000937 12 9.00000937 13.6539792 9.00000937 14.9999906 10.3460208 14.9999906 12 14.9999906 13.6539792 13.6539792 14.9999906 12 14.9999906z"/><path fill-rule="nonzero" d="M12,7 C9.24300862,7 7,9.24300862 7,12 C7,14.7569914 9.24300862,17 12,17 C14.7569914,17 17,14.7569914 17,12 C17,9.24300862 14.7569914,7 12,7 Z" opacity=".5"/></g></svg>
