<svg xmlns="http://www.w3.org/2000/svg" xmlns:xlink="http://www.w3.org/1999/xlink" width="7" height="315" viewBox="0 0 7 315"><defs><path id="ve6la" d="M798 509.5a3.5 3.5 0 1 1 7 0 3.5 3.5 0 0 1-7 0z"/><path id="ve6lb" d="M798 520.5a3.5 3.5 0 1 1 7 0 3.5 3.5 0 0 1-7 0z"/><path id="ve6lc" d="M798 531.5a3.5 3.5 0 1 1 7 0 3.5 3.5 0 0 1-7 0z"/><path id="ve6ld" d="M798 542.5a3.5 3.5 0 1 1 7 0 3.5 3.5 0 0 1-7 0z"/><path id="ve6le" d="M798 553.5a3.5 3.5 0 1 1 7 0 3.5 3.5 0 0 1-7 0z"/><path id="ve6lf" d="M798 564.5a3.5 3.5 0 1 1 7 0 3.5 3.5 0 0 1-7 0z"/><path id="ve6lg" d="M798 575.5a3.5 3.5 0 1 1 7 0 3.5 3.5 0 0 1-7 0z"/><path id="ve6lh" d="M798 586.5a3.5 3.5 0 1 1 7 0 3.5 3.5 0 0 1-7 0z"/><path id="ve6li" d="M798 597.5a3.5 3.5 0 1 1 7 0 3.5 3.5 0 0 1-7 0z"/><path id="ve6lj" d="M798 608.5a3.5 3.5 0 1 1 7 0 3.5 3.5 0 0 1-7 0z"/><path id="ve6lk" d="M798 619.5a3.5 3.5 0 1 1 7 0 3.5 3.5 0 0 1-7 0z"/><path id="ve6ll" d="M798 630.5a3.5 3.5 0 1 1 7 0 3.5 3.5 0 0 1-7 0z"/><path id="ve6lm" d="M798 641.5a3.5 3.5 0 1 1 7 0 3.5 3.5 0 0 1-7 0z"/><path id="ve6ln" d="M798 652.5a3.5 3.5 0 1 1 7 0 3.5 3.5 0 0 1-7 0z"/><path id="ve6lo" d="M798 663.5a3.5 3.5 0 1 1 7 0 3.5 3.5 0 0 1-7 0z"/><path id="ve6lp" d="M798 674.5a3.5 3.5 0 1 1 7 0 3.5 3.5 0 0 1-7 0z"/><path id="ve6lq" d="M798 685.5a3.5 3.5 0 1 1 7 0 3.5 3.5 0 0 1-7 0z"/><path id="ve6lr" d="M798 696.5a3.5 3.5 0 1 1 7 0 3.5 3.5 0 0 1-7 0z"/><path id="ve6ls" d="M798 707.5a3.5 3.5 0 1 1 7 0 3.5 3.5 0 0 1-7 0z"/><path id="ve6lt" d="M798 718.5a3.5 3.5 0 1 1 7 0 3.5 3.5 0 0 1-7 0z"/><path id="ve6lu" d="M798 729.5a3.5 3.5 0 1 1 7 0 3.5 3.5 0 0 1-7 0z"/><path id="ve6lv" d="M798 740.5a3.5 3.5 0 1 1 7 0 3.5 3.5 0 0 1-7 0z"/><path id="ve6lw" d="M798 751.5a3.5 3.5 0 1 1 7 0 3.5 3.5 0 0 1-7 0z"/><path id="ve6lx" d="M798 762.5a3.5 3.5 0 1 1 7 0 3.5 3.5 0 0 1-7 0z"/><path id="ve6ly" d="M798 773.5a3.5 3.5 0 1 1 7 0 3.5 3.5 0 0 1-7 0z"/><path id="ve6lz" d="M798 784.5a3.5 3.5 0 1 1 7 0 3.5 3.5 0 0 1-7 0z"/><path id="ve6lA" d="M798 795.5a3.5 3.5 0 1 1 7 0 3.5 3.5 0 0 1-7 0z"/><path id="ve6lB" d="M798 806.5a3.5 3.5 0 1 1 7 0 3.5 3.5 0 0 1-7 0z"/><path id="ve6lC" d="M798 817.5a3.5 3.5 0 1 1 7 0 3.5 3.5 0 0 1-7 0z"/></defs><g><g clip-path="url(#clip-8CF01625-EDE6-4AD0-9125-844A9ADC357F)" transform="translate(-798 -506)"><g><use fill="#fff" xlink:href="#ve6la"/></g><g><use fill="#fff" xlink:href="#ve6lb"/></g><g><use fill="#fff" xlink:href="#ve6lc"/></g><g><use fill="#fff" xlink:href="#ve6ld"/></g><g><use fill="#fff" xlink:href="#ve6le"/></g><g><use fill="#fff" xlink:href="#ve6lf"/></g><g><use fill="#fff" xlink:href="#ve6lg"/></g><g><use fill="#fff" xlink:href="#ve6lh"/></g><g><use fill="#fff" xlink:href="#ve6li"/></g><g><use fill="#fff" xlink:href="#ve6lj"/></g><g><use fill="#fff" xlink:href="#ve6lk"/></g><g><use fill="#fff" xlink:href="#ve6ll"/></g><g><use fill="#fff" xlink:href="#ve6lm"/></g><g><use fill="#fff" xlink:href="#ve6ln"/></g><g><use fill="#fff" xlink:href="#ve6lo"/></g><g><use fill="#fff" xlink:href="#ve6lp"/></g><g><use fill="#fff" xlink:href="#ve6lq"/></g><g><use fill="#fff" xlink:href="#ve6lr"/></g><g><use fill="#fff" xlink:href="#ve6ls"/></g><g><use fill="#fff" xlink:href="#ve6lt"/></g><g><use fill="#fff" xlink:href="#ve6lu"/></g><g><use fill="#fff" xlink:href="#ve6lv"/></g><g><use fill="#fff" xlink:href="#ve6lw"/></g><g><use fill="#fff" xlink:href="#ve6lx"/></g><g><use fill="#fff" xlink:href="#ve6ly"/></g><g><use fill="#fff" xlink:href="#ve6lz"/></g><g><use fill="#fff" xlink:href="#ve6lA"/></g><g><use fill="#fff" xlink:href="#ve6lB"/></g><g><use fill="#fff" xlink:href="#ve6lC"/></g></g></g></svg>