<svg xmlns="http://www.w3.org/2000/svg" xmlns:xlink="http://www.w3.org/1999/xlink" width="1108" height="10" viewBox="0 0 1108 10"><defs><path id="vxbka" d="M68.7 2913.1s7.37 3.58 14.85 3.58c7.48 0 10.43-.36 18.65-3.58 8.23-3.2 7.48-4.1 17.8-4.1 10.33 0 17.85 4.1 17.85 4.1"/><path id="vxbkb" d="M137.91 2913.1s7.37 3.58 14.85 3.58c7.48 0 10.43-.36 18.65-3.58 8.23-3.2 7.48-4.1 17.8-4.1 10.33 0 17.85 4.1 17.85 4.1"/><path id="vxbkc" d="M207.12 2913.1s7.37 3.58 14.85 3.58c7.48 0 10.43-.36 18.65-3.58 8.23-3.2 7.48-4.1 17.8-4.1 10.33 0 17.85 4.1 17.85 4.1"/><path id="vxbkd" d="M276.33 2913.1s7.37 3.58 14.85 3.58c7.48 0 10.43-.36 18.65-3.58 8.23-3.2 7.48-4.1 17.8-4.1 10.33 0 17.85 4.1 17.85 4.1"/><path id="vxbke" d="M345.54 2913.1s7.37 3.58 14.85 3.58c7.48 0 10.43-.36 18.65-3.58 8.23-3.2 7.48-4.1 17.8-4.1 10.33 0 17.85 4.1 17.85 4.1"/><path id="vxbkf" d="M414.75 2913.1s7.37 3.58 14.85 3.58c7.48 0 10.43-.36 18.65-3.58 8.23-3.2 7.48-4.1 17.8-4.1 10.33 0 17.85 4.1 17.85 4.1"/><path id="vxbkg" d="M483.95 2913.1s7.37 3.58 14.85 3.58c7.48 0 10.43-.36 18.65-3.58 8.23-3.2 7.48-4.1 17.8-4.1 10.33 0 17.85 4.1 17.85 4.1"/><path id="vxbkh" d="M553.16 2913.1s7.37 3.58 14.85 3.58c7.48 0 10.43-.36 18.65-3.58 8.23-3.2 7.48-4.1 17.8-4.1 10.33 0 17.85 4.1 17.85 4.1"/><path id="vxbki" d="M622.37 2913.1s7.37 3.58 14.85 3.58c7.48 0 10.43-.36 18.65-3.58 8.23-3.2 7.48-4.1 17.8-4.1 10.33 0 17.85 4.1 17.85 4.1"/><path id="vxbkj" d="M691.58 2913.1s7.37 3.58 14.85 3.58c7.48 0 10.43-.36 18.65-3.58 8.23-3.2 7.48-4.1 17.8-4.1 10.33 0 17.85 4.1 17.85 4.1"/><path id="vxbkk" d="M761 2913.1s7.37 3.58 14.85 3.58c7.48 0 10.43-.36 18.65-3.58 8.23-3.2 7.48-4.1 17.8-4.1 10.33 0 17.85 4.1 17.85 4.1"/><path id="vxbkl" d="M830 2913.1s7.37 3.58 14.85 3.58c7.48 0 10.43-.36 18.65-3.58 8.23-3.2 7.48-4.1 17.8-4.1 10.33 0 17.85 4.1 17.85 4.1"/><path id="vxbkm" d="M899 2913.1s7.37 3.58 14.85 3.58c7.48 0 10.43-.36 18.65-3.58 8.23-3.2 7.48-4.1 17.8-4.1 10.33 0 17.85 4.1 17.85 4.1"/><path id="vxbkn" d="M968 2913.1s7.37 3.58 14.85 3.58c7.48 0 10.43-.36 18.65-3.58 8.23-3.2 7.48-4.1 17.8-4.1 10.33 0 17.85 4.1 17.85 4.1"/><path id="vxbko" d="M1037 2913.1s7.37 3.58 14.85 3.58c7.48 0 10.43-.36 18.65-3.58 8.23-3.2 7.48-4.1 17.8-4.1 10.33 0 17.85 4.1 17.85 4.1"/><path id="vxbkp" d="M1106 2913.1s7.37 3.58 14.85 3.58c7.48 0 10.43-.36 18.65-3.58 8.23-3.2 7.48-4.1 17.8-4.1 10.33 0 17.85 4.1 17.85 4.1"/></defs><g><g opacity=".34" transform="translate(-68 -2908)"><g opacity=".34"><use fill="#fff" fill-opacity="0" stroke="#61c6e0" stroke-miterlimit="50" stroke-width="2" xlink:href="#vxbka"/></g><g opacity=".34"><use fill="#fff" fill-opacity="0" stroke="#61c6e0" stroke-miterlimit="50" stroke-width="2" xlink:href="#vxbkb"/></g><g opacity=".34"><use fill="#fff" fill-opacity="0" stroke="#61c6e0" stroke-miterlimit="50" stroke-width="2" xlink:href="#vxbkc"/></g><g opacity=".34"><use fill="#fff" fill-opacity="0" stroke="#61c6e0" stroke-miterlimit="50" stroke-width="2" xlink:href="#vxbkd"/></g><g opacity=".34"><use fill="#fff" fill-opacity="0" stroke="#61c6e0" stroke-miterlimit="50" stroke-width="2" xlink:href="#vxbke"/></g><g opacity=".34"><use fill="#fff" fill-opacity="0" stroke="#61c6e0" stroke-miterlimit="50" stroke-width="2" xlink:href="#vxbkf"/></g><g opacity=".34"><use fill="#fff" fill-opacity="0" stroke="#61c6e0" stroke-miterlimit="50" stroke-width="2" xlink:href="#vxbkg"/></g><g opacity=".34"><use fill="#fff" fill-opacity="0" stroke="#61c6e0" stroke-miterlimit="50" stroke-width="2" xlink:href="#vxbkh"/></g><g opacity=".34"><use fill="#fff" fill-opacity="0" stroke="#61c6e0" stroke-miterlimit="50" stroke-width="2" xlink:href="#vxbki"/></g><g opacity=".34"><use fill="#fff" fill-opacity="0" stroke="#61c6e0" stroke-miterlimit="50" stroke-width="2" xlink:href="#vxbkj"/></g><g opacity=".34"><use fill="#fff" fill-opacity="0" stroke="#61c6e0" stroke-miterlimit="50" stroke-width="2" xlink:href="#vxbkk"/></g><g opacity=".34"><use fill="#fff" fill-opacity="0" stroke="#61c6e0" stroke-miterlimit="50" stroke-width="2" xlink:href="#vxbkl"/></g><g opacity=".34"><use fill="#fff" fill-opacity="0" stroke="#61c6e0" stroke-miterlimit="50" stroke-width="2" xlink:href="#vxbkm"/></g><g opacity=".34"><use fill="#fff" fill-opacity="0" stroke="#61c6e0" stroke-miterlimit="50" stroke-width="2" xlink:href="#vxbkn"/></g><g opacity=".34"><use fill="#fff" fill-opacity="0" stroke="#61c6e0" stroke-miterlimit="50" stroke-width="2" xlink:href="#vxbko"/></g><g opacity=".34"><use fill="#fff" fill-opacity="0" stroke="#61c6e0" stroke-miterlimit="50" stroke-width="2" xlink:href="#vxbkp"/></g></g></g></svg>