<svg xmlns="http://www.w3.org/2000/svg" xmlns:xlink="http://www.w3.org/1999/xlink" width="347" height="10" viewBox="0 0 347 10"><defs><path id="cqv5a" d="M237.7 744.1s7.37 3.58 14.85 3.58c7.48 0 10.43-.36 18.65-3.58 8.23-3.2 7.48-4.1 17.8-4.1 10.33 0 17.85 4.1 17.85 4.1"/><path id="cqv5b" d="M306.91 744.1s7.37 3.58 14.85 3.58c7.48 0 10.43-.36 18.65-3.58 8.23-3.2 7.48-4.1 17.8-4.1 10.33 0 17.85 4.1 17.85 4.1"/><path id="cqv5c" d="M376.12 744.1s7.37 3.58 14.85 3.58c7.48 0 10.43-.36 18.65-3.58 8.23-3.2 7.48-4.1 17.8-4.1 10.33 0 17.85 4.1 17.85 4.1"/><path id="cqv5d" d="M445.33 744.1s7.37 3.58 14.85 3.58c7.48 0 10.43-.36 18.65-3.58 8.23-3.2 7.48-4.1 17.8-4.1 10.33 0 17.85 4.1 17.85 4.1"/><path id="cqv5e" d="M514 744.1s7.37 3.58 14.85 3.58c7.48 0 10.43-.36 18.65-3.58 8.23-3.2 7.48-4.1 17.8-4.1 10.33 0 17.85 4.1 17.85 4.1"/></defs><g><g transform="translate(-237 -739)"><g opacity=".34"><use fill="#fff" fill-opacity="0" stroke="#61c6e0" stroke-miterlimit="50" stroke-width="2" xlink:href="#cqv5a"/></g><g opacity=".34"><use fill="#fff" fill-opacity="0" stroke="#61c6e0" stroke-miterlimit="50" stroke-width="2" xlink:href="#cqv5b"/></g><g opacity=".34"><use fill="#fff" fill-opacity="0" stroke="#61c6e0" stroke-miterlimit="50" stroke-width="2" xlink:href="#cqv5c"/></g><g opacity=".34"><use fill="#fff" fill-opacity="0" stroke="#61c6e0" stroke-miterlimit="50" stroke-width="2" xlink:href="#cqv5d"/></g><g opacity=".34"><use fill="#fff" fill-opacity="0" stroke="#61c6e0" stroke-miterlimit="50" stroke-width="2" xlink:href="#cqv5e"/></g></g></g></svg>