<svg xmlns="http://www.w3.org/2000/svg" xmlns:xlink="http://www.w3.org/1999/xlink" width="30" height="30" viewBox="0 0 30 30"><defs><path id="q84na" d="M686.19 1175.63a6.57 6.57 0 0 1-6.57 6.56h-11.25a6.57 6.57 0 0 1-6.56-6.57v-11.24a6.57 6.57 0 0 1 6.57-6.57h11.25a6.57 6.57 0 0 1 6.56 6.57zm-6.57-20.63h-11.25a9.38 9.38 0 0 0-9.37 9.38v11.24c0 5.18 4.2 9.38 9.38 9.38h11.25c5.17 0 9.37-4.2 9.37-9.38v-11.24c0-5.18-4.2-9.38-9.38-9.38z"/><path id="q84nc" d="M673.5 1174.19a4.7 4.7 0 1 1 .01-9.4 4.7 4.7 0 0 1-.01 9.4zm0-12.19a7.5 7.5 0 1 0 0 15 7.5 7.5 0 0 0 0-15z"/><path id="q84ne" d="M681 1162a1 1 0 1 1 2 0 1 1 0 0 1-2 0z"/><linearGradient id="q84nb" x1="661.75" x2="686.25" y1="1182.25" y2="1157.75" gradientUnits="userSpaceOnUse"><stop offset="0" stop-color="#ffc107"/><stop offset=".51" stop-color="#f44336"/><stop offset=".99" stop-color="#9c27b0"/></linearGradient><linearGradient id="q84nd" x1="668.2" x2="678.8" y1="1174.8" y2="1164.2" gradientUnits="userSpaceOnUse"><stop offset="0" stop-color="#ffc107"/><stop offset=".51" stop-color="#f44336"/><stop offset=".99" stop-color="#9c27b0"/></linearGradient></defs><g><g transform="translate(-659 -1155)"><g><use fill="url(#q84nb)" xlink:href="#q84na"/></g><g><use fill="url(#q84nd)" xlink:href="#q84nc"/></g><g><use fill="#a92ba0" xlink:href="#q84ne"/></g></g></g></svg>