<svg xmlns="http://www.w3.org/2000/svg" xmlns:xlink="http://www.w3.org/1999/xlink" width="112" height="21" viewBox="0 0 112 21"><defs><path id="hhzha" d="M569.45 1339.8l1.78 16.52c.08.7.22 1.3.4 1.81.2.52.54.86 1.05 1.04a7.65 7.65 0 0 0 1.73.23c.14 0 .2.05.2.14 0 .16-.18.24-.55.24a137.82 137.82 0 0 1-4.45-.16c-.5-.04-.74-.13-.74-.27 0-.1.06-.16.18-.18.08-.02.12-.35.12-1l-1.3-13.88h-.07l-6.53 14-.57 1.18c-.1.17-.2.26-.3.26-.1 0-.18-.06-.26-.18l-.57-1.05-.9-1.8-.82-1.63-.8-1.63-.6-1.2c-.17-.34-.55-1.15-1.13-2.43l-1.53-3.34-.86-1.9h-.1l-1.07 12.49c-.02.28-.03.75-.03 1.4 0 .17.07.35.2.51.14.17.3.27.5.3.37.09.71.13 1 .13.16 0 .23.05.23.14 0 .16-.16.24-.48.24a149.07 149.07 0 0 0-1.65-.05l-.5-.02a7.4 7.4 0 0 0-.67 0l-.49.02a46.36 46.36 0 0 0-1.41.05c-.3 0-.46-.08-.46-.23 0-.1.1-.15.27-.15.27 0 .54-.02.8-.08a.92.92 0 0 0 .76-.62c.13-.35.23-.89.3-1.62l1.93-17.52c.05-.34.15-.51.29-.51.15 0 .29.13.4.4l8.16 16.95 7.83-16.92c.12-.29.25-.43.39-.43.16 0 .27.25.32.74z"/><path id="hhzhb" d="M581.43 1350.88h5.09c.07 0 .11-.06.11-.18l-2.53-7.28c-.05-.2-.1-.3-.19-.3-.07 0-.14.1-.22.3l-2.34 7.28c0 .12.02.18.08.18zm-3.73 5.95l6.04-16.71c.26-.71.46-1.07.6-1.07.09 0 .18.08.26.23.09.15.2.4.33.76l1.33 3.49a2054.7 2054.7 0 0 0 4.88 12.74c.42 1.05.82 1.79 1.18 2.2.37.41.73.67 1.1.78.33.1.69.15 1.08.15.17 0 .26.06.26.17 0 .14-.18.2-.54.2-1.56 0-2.95 0-4.18-.04l-.6-.05c-.14-.02-.2-.07-.2-.13 0-.1.06-.17.2-.2.13-.04.2-.17.2-.4a.88.88 0 0 0-.05-.32l-2.48-6.63c-.06-.1-.14-.16-.24-.16h-5.73c-.13 0-.22.07-.27.21l-1.6 4.78a5.5 5.5 0 0 0-.37 1.8c0 .25.1.43.32.57.21.13.44.2.7.2h.26c.18 0 .27.06.27.17 0 .14-.13.2-.4.2a11.96 11.96 0 0 1-1.27-.04l-.45-.02a8.55 8.55 0 0 0-.76 0l-.6.02a112.89 112.89 0 0 0-2.01.05c-.34 0-.51-.07-.51-.21 0-.11.08-.17.23-.17.23 0 .5-.02.79-.05a1.92 1.92 0 0 0 1.34-.76 6.3 6.3 0 0 0 .9-1.76z"/><path id="hhzhc" d="M598.57 1351.97v-4.74-4.28c-.01-.63-.03-1.15-.07-1.54a2.06 2.06 0 0 0-.27-1.06c-.16-.22-.45-.37-.87-.46-.2-.05-.5-.08-.9-.08-.15 0-.22-.05-.22-.15 0-.17.14-.25.43-.25a40.77 40.77 0 0 1 2.5.07l.43.02.43-.02a99 99 0 0 1 2.17-.07c.28 0 .43.08.43.25 0 .1-.08.15-.22.15a5 5 0 0 0-.67.09c-.34.05-.57.2-.71.42-.14.23-.23.6-.28 1.1-.02.44-.04.96-.04 1.57V1348.84h.11c.2-.23.52-.57.95-1l1.74-1.8 2.12-2.19a51.63 51.63 0 0 0 2.5-2.7c.23-.3.35-.55.35-.75 0-.29-.11-.47-.34-.56-.16-.07-.24-.14-.24-.2 0-.16.1-.23.32-.23l.4.01.8.05a17.88 17.88 0 0 0 1.16.01 88.78 88.78 0 0 1 2.2-.07c.26 0 .4.07.4.22 0 .12-.1.18-.27.18a4.93 4.93 0 0 0-2.24.8 6.15 6.15 0 0 0-1.35 1.14l-.79.76-1.16 1.15a547.43 547.43 0 0 0-3.62 3.62c-.55.56-.9.93-1.07 1.12l1.31 1.39a339.7 339.7 0 0 0 6.01 6.2c.84.77 1.44 1.33 1.82 1.66a6.61 6.61 0 0 0 2.15 1.4c.56.23 1.1.35 1.65.35.24 0 .35.05.35.17 0 .14-.2.2-.58.2h-1.37c-.83 0-1.44-.01-1.83-.05a3.9 3.9 0 0 1-1.56-.44c-.4-.23-.96-.64-1.67-1.21-.38-.3-1.16-1.09-2.35-2.35-1.2-1.26-2.34-2.5-3.44-3.73a64.99 64.99 0 0 1-2.32-2.66h-.15v5.01a60.26 60.26 0 0 0 .15 3.47c.04.45.13.8.26 1.04.14.24.4.4.76.44.5.07.85.1 1.04.1.15 0 .23.06.23.18 0 .14-.15.2-.43.2h-.74a185.33 185.33 0 0 0-2.7-.07l-.57.02a56.99 56.99 0 0 0-1.63.06c-.28 0-.43-.07-.43-.21 0-.12.07-.17.21-.17.21 0 .48-.04.8-.1a.67.67 0 0 0 .53-.42c.1-.23.19-.58.25-1.07.05-.4.08-1.06.1-1.98.03-.93.04-2.22.04-3.86z"/><path id="hhzhd" d="M618.6 1351.98v-4.74-4.28c0-.63-.02-1.15-.06-1.54a2.07 2.07 0 0 0-.27-1.06c-.16-.22-.45-.37-.87-.46-.21-.05-.5-.08-.9-.08-.15 0-.22-.05-.22-.15 0-.17.14-.25.43-.25a42.51 42.51 0 0 1 2.57.07l.45.02c3.65 0 5.68 0 6.1-.03.46-.02.84-.07 1.14-.14.03 0 .09-.03.18-.07.09-.04.15-.06.19-.06.07 0 .1.08.1.25 0 .08-.03.25-.08.5-.06.25-.1.5-.13.77a79.33 79.33 0 0 0-.13 1.79c-.04.2-.1.3-.18.3-.15 0-.22-.12-.22-.36 0-.4-.05-.72-.16-.98-.1-.25-.27-.45-.52-.6-.24-.13-.7-.23-1.38-.3a111.78 111.78 0 0 0-3.64-.1c-.1 0-.15.1-.15.28v7.43c0 .18.05.27.15.27 2.41 0 3.82-.01 4.23-.05.65-.05 1.07-.18 1.26-.38l.26-.28c.04-.04.09-.07.13-.07.1 0 .14.08.14.22a17.02 17.02 0 0 0-.32 3.23c0 .33-.06.5-.18.5-.13 0-.2-.08-.2-.24 0-.35-.03-.65-.1-.88-.15-.56-.6-.88-1.38-.96-.9-.1-2.16-.14-3.81-.14-.12 0-.18.07-.18.2v6.97c.02.65.11 1.13.26 1.43.16.3.44.51.85.62.41.11 1.07.16 1.97.16.55 0 1.04-.02 1.48-.06.44-.03.8-.11 1.08-.22.35-.17.61-.4.8-.7.18-.3.31-.72.4-1.25.04-.26.12-.4.23-.4.12 0 .17.14.17.4a17.55 17.55 0 0 1-.35 2.61c-.06.23-.13.39-.22.48a.6.6 0 0 1-.38.18c-.16.02-.45.03-.84.03-1.62 0-3.12-.03-4.5-.08l-2.07-.08a20.06 20.06 0 0 0-1.07.03 37 37 0 0 1-1.55.05c-.28 0-.43-.07-.43-.2 0-.12.07-.18.21-.18.2 0 .48-.03.8-.1a.67.67 0 0 0 .53-.4c.1-.24.18-.6.25-1.08.05-.4.08-1.06.1-1.99.03-.92.04-2.2.04-3.85z"/><path id="hhzhe" d="M637.1 1347.23v4.74c0 1.64 0 2.93.02 3.85.02.92.06 1.58.1 1.99.04.45.14.8.28 1.05.14.24.4.39.76.43.49.07.89.1 1.2.1.14 0 .2.06.2.18 0 .14-.14.2-.42.2h-.89a119.96 119.96 0 0 0-2.72-.07l-.59.02a60.2 60.2 0 0 0-1.68.05c-.29 0-.43-.07-.43-.2 0-.12.07-.17.2-.17.22 0 .48-.04.81-.1a.67.67 0 0 0 .52-.42c.1-.23.19-.58.25-1.07.05-.4.09-1.06.11-1.98.02-.93.03-2.22.03-3.86v-4.74-4.28c0-.63-.03-1.15-.06-1.54-.05-.86-.35-1.36-.9-1.5a3.3 3.3 0 0 0-.83-.1c-.14 0-.21-.05-.21-.15 0-.17.14-.25.43-.25a38.83 38.83 0 0 1 2.29.07l.4.02.39-.02a98.7 98.7 0 0 1 2.21-.07c.29 0 .43.08.43.25 0 .1-.07.15-.2.15a5 5 0 0 0-.69.09c-.33.05-.57.2-.71.43-.15.23-.23.59-.26 1.08-.02.45-.04.97-.04 1.58v4.24z"/><path id="hhzhf" d="M652.25 1340.6v11.37c0 1.65 0 2.93.03 3.85.02.92.05 1.59.1 2 .04.44.13.8.28 1.04.14.25.4.4.76.44.5.07.9.1 1.2.1.13 0 .2.06.2.17 0 .14-.14.2-.42.2h-.9a119.85 119.85 0 0 0-2.7-.06l-.6.02a59.07 59.07 0 0 0-1.69.05c-.28 0-.43-.07-.43-.21 0-.11.08-.17.22-.17.22 0 .49-.03.8-.1a.67.67 0 0 0 .52-.41c.1-.23.18-.59.25-1.08.05-.4.08-1.06.1-1.98.03-.93.04-2.21.04-3.86v-11.37l-3.94.05c-.84.02-1.44.08-1.82.2-.39.12-.69.33-.9.65-.22.33-.37.61-.46.86-.06.17-.15.26-.27.26-.09 0-.13-.08-.13-.24 0-.14.09-.6.27-1.4l.32-1.4c.09-.35.18-.53.27-.53l.38.14c.24.1.5.15.79.17.8.1 1.5.15 2.1.15h10a16.54 16.54 0 0 0 2.63-.28c.09 0 .14.12.14.35l-.03 1.17-.05 1.35-.01.44c0 .23-.06.35-.19.35-.12 0-.19-.15-.2-.46l-.03-.32c-.06-.45-.33-.8-.8-1.05a6.13 6.13 0 0 0-2.48-.41l-3.35-.05z"/></defs><g><g opacity=".5" transform="translate(-548 -1339)"><g opacity=".5"><use xlink:href="#hhzha"/></g><g opacity=".5"><use xlink:href="#hhzhb"/></g><g opacity=".5"><use xlink:href="#hhzhc"/></g><g opacity=".5"><use xlink:href="#hhzhd"/></g><g opacity=".5"><use xlink:href="#hhzhe"/></g><g opacity=".5"><use xlink:href="#hhzhf"/></g></g></g></svg>