<svg xmlns="http://www.w3.org/2000/svg" xmlns:xlink="http://www.w3.org/1999/xlink" width="24" height="21" viewBox="0 0 24 21"><defs><path id="akoya" d="M127 577h-20v-15h20v14s.55 1 0 1zm2-17h-14v-2h-7v2h-3v19h24v-16-3z"/><path id="akoyb" d="M111 564h-2a1 1 0 1 0 0 2h2a1 1 0 1 0 0-2z"/><path id="akoyc" d="M117 573a3 3 0 1 1 0-6 3 3 0 0 1 0 6zm0-8a5 5 0 1 0 .01 10.01A5 5 0 0 0 117 565z"/></defs><g><g transform="translate(-105 -558)"><g><use fill="#fff" xlink:href="#akoya"/></g><g><use fill="#fff" xlink:href="#akoyb"/></g><g><use fill="#fff" xlink:href="#akoyc"/></g></g></g></svg>