<svg xmlns="http://www.w3.org/2000/svg" xmlns:xlink="http://www.w3.org/1999/xlink" width="21" height="21" viewBox="0 0 21 21"><defs><path id="bffqa" d="M160.48 2722.48a5.82 5.82 0 1 1-8.23-8.22 5.82 5.82 0 0 1 8.23 8.22zm8.12 5.82l-3.03-3.03a1.4 1.4 0 0 0-1.07-.4l-1.45-1.46a8.38 8.38 0 1 0-1.64 1.64l1.45 1.46c-.01.38.12.77.41 1.06l3.02 3.02a1.4 1.4 0 0 0 1.96 0l.34-.33c.55-.54.55-1.42 0-1.96z"/><path id="bffqb" d="M159.01 2717.51h-1.52V2716c0-.55-.44-.99-.98-.99h-.01a.99.99 0 0 0-.99 1v1.51H154a.99.99 0 0 0 0 1.98h1.52v1.52a.99.99 0 0 0 1.98 0v-1.52H159c.55 0 .99-.44.99-.99a.98.98 0 0 0-.99-.99z"/></defs><g><g transform="translate(-148 -2710)"><g><use fill="#fff" xlink:href="#bffqa"/></g><g><use fill="#fff" xlink:href="#bffqb"/></g></g></g></svg>