<svg xmlns="http://www.w3.org/2000/svg" xmlns:xlink="http://www.w3.org/1999/xlink" width="162" height="160" viewBox="0 0 162 160"><defs><path id="vptha" d="M199.82 1391l10.18 10.06-13.1 12.94-10.9-10.78zm41.18 19h15v22h-15zm53-58c0 24.2-20.02 44-44.5 44s-44.5-19.8-44.5-44 20.02-44 44.5-44 44.5 19.8 44.5 44zm36-7v15h-22v-15zm-32.94 46l12.94 12.94-10.06 10.06-12.94-12.94zm.12-78L287 1302.94l13.1-12.94 10.9 10.78zM256 1294h-15v-22h15zm-66 66h-22v-15h22zm9.1-46l-13.1-13.1 10.9-10.9 13.1 13.1z"/></defs><g><g opacity=".66" transform="translate(-168 -1272)"><use fill="#61c6e0" xlink:href="#vptha"/></g></g></svg>