<svg xmlns="http://www.w3.org/2000/svg" xmlns:xlink="http://www.w3.org/1999/xlink" width="20" height="22" viewBox="0 0 20 22"><defs><path id="z5bga" d="M906 36.7V40c0 4.25-3.49 7.7-7.78 7.7h-3.92l-3.22 3.2c-.23.22-.64.06-.64-.26v-3.68A7.7 7.7 0 0 1 886 40v-3.3c0-4.25 3.49-7.7 7.78-7.7h4.44a7.75 7.75 0 0 1 7.78 7.7zm-5.91 5.5l-.3-1.54a.32.32 0 0 0-.25-.25l-2.3-.45a.33.33 0 0 0-.3.09l-.92.9a5.75 5.75 0 0 1-3.21-3.12l.93-.9a.3.3 0 0 0 .08-.28l-.45-2.23a.32.32 0 0 0-.26-.25l-1.58-.28c-.05-.01-.1 0-.14 0-.41.1-.8.3-1.1.6-.52.5-.72 1.24-.58 2.14.25 1.5 1 3.6 2.41 4.97l.02.02a9.94 9.94 0 0 0 5.68 2.38c.68 0 1.24-.2 1.65-.6.3-.3.52-.67.61-1.08a.3.3 0 0 0 0-.12zm-2.73-7.73c-.18 0-.32.16-.32.36 0 .2.14.36.32.36.73 0 1.32.64 1.32 1.43 0 .2.15.36.33.36.17 0 .32-.17.32-.36 0-1.18-.88-2.15-1.97-2.15zm0-1.42c-.12 0-.24 0-.36.02-.18.02-.31.2-.3.4.03.19.19.33.37.3l.3-.01c1.44 0 2.63 1.27 2.63 2.84l-.02.32c-.02.19.11.37.29.39.18.02.34-.12.36-.31.02-.13.02-.27.02-.4 0-1.96-1.47-3.55-3.29-3.55zm0-1.43c-.11 0-.23 0-.35.02-.18.01-.32.18-.3.38.01.2.17.34.35.33l.3-.02c2.18 0 3.95 1.92 3.95 4.28 0 .33-.03.67-.1.99-.04.18.06.37.23.42.18.05.37-.07.4-.26.1-.37.13-.76.13-1.15 0-2.75-2.06-4.99-4.6-4.99z"/></defs><g><g transform="translate(-886 -29)"><use fill="#665cac" xlink:href="#z5bga"/><use xlink:href="#z5bga"/></g></g></svg>