<svg xmlns="http://www.w3.org/2000/svg" xmlns:xlink="http://www.w3.org/1999/xlink" width="34" height="19" viewBox="0 0 34 19"><defs><path id="88toa" d="M685.26 1107.08c1.13 1.09 2.32 2.11 3.33 3.3a9.6 9.6 0 0 1 1.2 1.7c.45.88.04 1.85-.76 1.9h-4.95c-1.28.1-2.3-.4-3.16-1.27-.68-.69-1.32-1.42-1.98-2.13-.27-.3-.55-.57-.89-.79-.67-.43-1.26-.3-1.65.4-.39.7-.48 1.5-.52 2.28-.05 1.15-.4 1.46-1.58 1.51a12.8 12.8 0 0 1-7.08-1.5 15.58 15.58 0 0 1-4.77-4.41 59.16 59.16 0 0 1-6.28-11.05c-.4-.87-.1-1.34.87-1.36 1.61-.03 3.23-.03 4.85 0 .65.01 1.09.38 1.34 1a29.57 29.57 0 0 0 3.29 6c.36.5.72 1 1.24 1.36.58.39 1.01.26 1.28-.38.17-.4.25-.83.29-1.26.13-1.47.14-2.95-.08-4.42-.14-.92-.66-1.51-1.6-1.68-.46-.1-.4-.27-.16-.53.4-.46.77-.75 1.51-.75h5.6c.88.17 1.08.56 1.2 1.44v6.14c0 .34.18 1.34.8 1.57.49.16.82-.23 1.11-.54 1.34-1.4 2.3-3.07 3.15-4.79.38-.75.7-1.54 1.03-2.32.23-.58.6-.87 1.26-.86h5.39c.16 0 .32 0 .47.04.91.15 1.16.53.88 1.4-.44 1.38-1.3 2.53-2.14 3.68-.9 1.22-1.86 2.41-2.75 3.65-.82 1.12-.76 1.7.26 2.67z"/></defs><g><g transform="translate(-656 -1095)"><use fill="#436eab" xlink:href="#88toa"/></g></g></svg>