<svg xmlns="http://www.w3.org/2000/svg" width="342" height="217" viewBox="0 0 342 217"><defs><linearGradient id="2342342-a" x1="50%" x2="50%" y1="0%" y2="262.732%"><stop offset="0%" stop-color="#F5FEFF"/><stop offset="100%" stop-color="#61B1E0"/></linearGradient></defs><path fill="url(#2342342-a)" d="M-7.15821846e-12,130.896494 C42.0339281,184.308065 104.461746,216.982823 171.01079,216.982823 C237.559834,216.982823 299.970388,184.308065 342,130.896494 C342.344689,98.0176325 342,15.2196978 342,0.0213967314 C322.715927,-0.0730762197 306.158997,11.2035588 300.047483,29.1705964 C279.295955,90.1442978 227.438717,131.106911 171.002158,131.106911 C114.565599,131.106911 62.7083609,90.1400036 41.9568334,29.1705964 C35.8582668,11.246501 18.0237893,-0.012957069 -7.15821846e-12,0.0205068327 C-7.15821846e-12,35.627063 -3.75138965e-12,105.539692 -7.15821846e-12,130.896494 Z"/></svg>