<svg xmlns="http://www.w3.org/2000/svg" xmlns:xlink="http://www.w3.org/1999/xlink" width="22" height="21" viewBox="0 0 22 21"><defs><path id="7mpua" d="M854 50l1.9-5.42a9.91 9.91 0 0 1-1.52-5.26c0-5.7 4.84-10.32 10.81-10.32 5.97 0 10.81 4.62 10.81 10.32s-4.84 10.32-10.81 10.32c-1.82 0-3.53-.43-5.03-1.19zm15.9-7.96c-.38-.7-1.8-1.48-1.8-1.48-.31-.18-.7-.2-.88.11 0 0-.46.53-.58.6-.53.35-1.03.34-1.53-.14l-2.32-2.22c-.5-.47-.51-.94-.15-1.45.08-.12.63-.56.63-.56.33-.17.3-.54.12-.84 0 0-.83-1.36-1.55-1.72a.82.82 0 0 0-.94.13l-.5.5c-1.64 1.54-.83 3.3.8 4.85l2.96 2.84c1.63 1.55 3.47 2.32 5.1.76l.5-.49c.25-.23.31-.6.15-.89z"/></defs><g><g transform="translate(-854 -29)"><use fill="#2cb742" xlink:href="#7mpua"/><use xlink:href="#7mpua"/></g></g></svg>